<?xml version="1.0" encoding="utf-8"?>
<!-- Generator: Adobe Illustrator 22.0.1, SVG Export Plug-In . SVG Version: 6.00 Build 0)  -->
<svg version="1.1" id="Layer_1" xmlns="http://www.w3.org/2000/svg" xmlns:xlink="http://www.w3.org/1999/xlink" x="0px" y="0px"
	 viewBox="0 0 100 100" style="enable-background:new 0 0 100 100;" xml:space="preserve">
<style type="text/css">
	.st0{fill:#52BAD5;}
</style>
<g>
	<g>
		<path class="st0" d="M0.7,52.8C1,51.2,2,49.9,3,48.7c1-1.2,2.2-2.2,3.5-3c1.3-0.8,2.6-1.1,4.1-1.2c1.5-0.2,3-0.2,4.5-0.2
			c1.3,0,2.6,0.1,4,0.2c0.3,0,1.3,0,1.4,0.4c0.2,0.3-0.3,0.5-0.6,0.6c-1.8,0.7-3.6,1.3-5.4,2c-2.6,1-5.3,1.9-7.9,2.9
			c-1.2,0.4-2.4,0.7-3.5,1.3c-0.7,0.4-1.4,0.9-1.7,1.7c-0.2,0.6,0,1.4,0.7,1.5c1.5,0.2,2.7-1.3,3.9-2c0.4-0.2,0.8-0.5,1.2-0.5
			c0.4,0,0.7,0.2,1,0.3c0.8,0.3,1.5-0.1,2.2-0.6c0.7-0.6,1.4-1.3,2.2-1.8c0.4-0.2,0.8-0.4,1.2-0.6c0.5-0.1,0.9,0,1.3,0.1
			c1.5,0.5,2.6-0.7,3.7-1.6c0.5-0.4,1.3-0.9,2-0.6c0.3,0.1,0.5,0.5,0.4,0.9c-0.1,0.3-0.5,0.6-0.7,0.7c-1.6,1-3.5,1.4-5.3,2
			c-4,1.1-7.8,3-11.8,4.2c-0.7,0.2-1.2,0.4-1.8,0c-0.4-0.2-0.8,0.4-0.4,0.6c0.6,0.4,1.2,0.4,1.8,0.2c1-0.3,2-0.6,3-1
			c2.1-0.8,4.2-1.7,6.4-2.4c1.8-0.7,3.7-1.1,5.6-1.7c0.9-0.3,1.9-0.7,2.7-1.2c0.6-0.3,1.2-0.8,1.3-1.5c0.1-0.7-0.4-1.4-1.1-1.6
			c-0.7-0.2-1.5,0.1-2,0.5c-0.7,0.4-1.2,1-1.8,1.4c-0.3,0.2-0.8,0.5-1.2,0.5c-0.4,0-0.7-0.2-1.1-0.3c-1.8-0.3-3.4,1.4-4.7,2.4
			c-0.4,0.3-0.8,0.6-1.3,0.6c-0.4,0-0.8-0.3-1.2-0.4c-0.8-0.2-1.6,0.3-2.2,0.7c-0.7,0.4-1.3,1-2,1.4c-0.4,0.2-0.7,0.4-1.2,0.4
			c-0.5,0-0.1-0.7,0-0.9c0.9-1.1,2.5-1.4,3.8-1.9c2.8-1,5.5-2,8.3-3c1.9-0.7,3.8-1.4,5.7-2.1c0.4-0.1,0.7-0.3,0.9-0.6
			c0.4-0.6,0.1-1.3-0.5-1.5c-0.5-0.2-1.1-0.2-1.6-0.3c-0.6-0.1-1.3-0.1-1.9-0.1c-1.6-0.1-3.2-0.1-4.8,0c-1.4,0.1-2.9,0.2-4.3,0.6
			c-1.5,0.4-2.9,1.4-4,2.5c-1.2,1.1-2.4,2.5-3.2,3.9c-0.3,0.6-0.6,1.3-0.8,2C-0.1,53,0.6,53.2,0.7,52.8L0.7,52.8z"/>
	</g>
	<g>
		<path class="st0" d="M30.1,46.2c-0.7-0.2-1.4-0.2-2.1,0c-0.6,0.3-1,0.9-1,1.5c0,1.2,1.1,1.5,2.1,1.7c1,0.2,2.2,0.4,2.8,1.3
			c0.2,0.3,0.3,0.7,0.3,1.1c0,0.5-0.1,0.9-0.4,1.3c-0.5,0.7-1.4,1.1-2.2,1.1c-0.3,0-0.5,0-0.8-0.1c-0.8-0.2-1.6-0.6-2.4-1.3l0.3-0.4
			c1.9,1.8,5,1.8,5-0.7c0-1.3-1.4-1.6-2.7-1.9c-0.4-0.1-1-0.2-1.5-0.5c-0.6-0.4-1-0.9-1-1.7c0-0.4,0.1-0.8,0.4-1.1
			c0.2-0.3,0.5-0.6,0.9-0.8c0.6-0.3,1.2-0.3,1.9-0.2c0.2,0,0.4,0.1,0.5,0.1L30.1,46.2z"/>
		<path class="st0" d="M36.7,46.1l-3,7.8h-0.5l3.2-8.4H37l3.2,8.4h-0.5L36.7,46.1z"/>
		<path class="st0" d="M42.4,46.4V54H42v-8.4h0.5l5.1,7.6v-7.6H48V54h-0.5L42.4,46.4z"/>
		<path class="st0" d="M50.1,46.1l0-0.4h2.8c0.6,0,1.1,0.1,1.6,0.3c0.5,0.2,0.9,0.5,1.3,0.9c0.4,0.4,0.7,0.8,0.9,1.3
			c0.2,0.5,0.3,1.1,0.3,1.6c0,0.6-0.1,1.1-0.3,1.6c-0.2,0.5-0.5,0.9-0.9,1.3c-0.4,0.4-0.8,0.7-1.3,0.9C54,53.9,53.4,54,52.9,54h-2.8
			v-1.7h0.5v1.3h2.3c2.1,0,3.7-1.7,3.7-3.7c0-2.1-1.7-3.7-3.7-3.7H50.1z"/>
		<path class="st0" d="M69.2,45.6L66.9,54h-0.7l-2.8-4.9L60.6,54h-0.7l-2.3-8.4h0.5l2.2,7.9l2.8-5h0.5l2.8,5l2.2-7.9H69.2z"/>
		<path class="st0" d="M76.8,45.6V54h-0.5V49H71V54h-0.5v-8.4H71v3h5.3v-3H76.8z"/>
		<path class="st0" d="M79.7,54h-0.5v-8.4h0.5V54z"/>
		<path class="st0" d="M87.6,46.2c-0.5-0.3-1.1-0.4-1.7-0.4c-2.2,0-3.9,1.8-3.9,3.9s1.8,3.9,3.9,3.9c1.1,0,2.2-0.5,2.9-1.3l0.4,0.3
			c-0.4,0.5-0.9,0.8-1.4,1.1c-0.6,0.3-1.2,0.4-1.8,0.4c-0.6,0-1.2-0.1-1.7-0.3c-0.5-0.2-1-0.5-1.4-0.9c-0.4-0.4-0.7-0.9-0.9-1.4
			c-0.2-0.5-0.3-1.1-0.3-1.7c0-0.6,0.1-1.2,0.3-1.7c0.2-0.5,0.5-1,0.9-1.4c0.4-0.4,0.9-0.7,1.4-0.9c0.5-0.2,1.1-0.3,1.7-0.3
			c0.6,0,1.3,0.1,1.8,0.4l0.1,0L87.6,46.2z"/>
		<path class="st0" d="M97.1,45.6V54h-0.5V49h-5.3V54h-0.5v-8.4h0.5v3h5.3v-3H97.1z"/>
		<path class="st0" d="M100,54h-0.5v-8.4h0.5V54z"/>
	</g>
</g>
</svg>
