<?xml version="1.0" encoding="utf-8"?>
<!-- Generator: Adobe Illustrator 22.0.1, SVG Export Plug-In . SVG Version: 6.00 Build 0)  -->
<svg version="1.1" id="Layer_1" xmlns="http://www.w3.org/2000/svg" xmlns:xlink="http://www.w3.org/1999/xlink" x="0px" y="0px"
	 viewBox="0 0 100 100" style="enable-background:new 0 0 100 100;" xml:space="preserve">
<style type="text/css">
	.st0{fill:#52BAD5;}
</style>
<g>
	<g>
		<path class="st0" d="M3.3,62.5c1.2-6.8,5.9-13,10.3-18.2c4.6-5.4,9.9-10,15.9-13.8c5.7-3.6,11.9-4.8,18.4-5.5
			c6.8-0.7,13.7-0.9,20.5-0.9c6,0.1,12,0.3,17.9,0.9c1.6,0.2,5.8,0.1,6.6,1.7c0.8,1.6-1.6,2.3-2.7,2.7c-8.2,3-16.4,6-24.6,9.1
			c-12,4.4-23.9,8.8-35.9,13.1c-5.2,1.9-10.9,3.3-15.8,6c-3,1.6-6.3,4.3-7.5,7.6c-0.9,2.7-0.2,6.3,3.1,6.7c6.9,0.8,12.4-6,17.9-9.1
			c1.6-0.9,3.7-2.1,5.7-2.2c1.6,0,3.1,1.1,4.6,1.5c3.7,1.2,6.9-0.3,9.9-2.6c3.4-2.6,6.4-5.7,10.1-8c1.7-1,3.5-2,5.4-2.5
			c2.1-0.6,3.9-0.1,5.9,0.5c6.9,2.2,11.8-3.4,16.8-7.2c2.3-1.8,6.1-4.1,9.1-2.9c1.5,0.6,2.2,2.5,1.7,4c-0.5,1.6-2.1,2.6-3.4,3.4
			c-7.3,4.5-16,6.5-24.2,8.8c-18.2,5.1-35.3,13.6-53.4,19.2c-3,0.9-5.3,1.6-8.1-0.1c-1.9-1.1-3.5,1.8-1.7,2.9
			c2.7,1.6,5.3,1.9,8.3,1.1c4.6-1.2,9.2-2.9,13.6-4.6c9.7-3.6,19.1-7.6,28.8-11.1c8.3-3,16.9-5.1,25.3-7.9c4.2-1.4,8.4-3,12.3-5.3
			c2.7-1.5,5.5-3.7,5.7-7c0.3-3.4-1.7-6.3-5-7.1c-3.2-0.8-6.6,0.5-9.3,2.2c-3,1.9-5.4,4.6-8.4,6.5c-1.5,1-3.5,2.1-5.3,2.1
			c-1.6,0-3.3-0.9-4.9-1.2C59,44,51.7,51.7,46,56.4c-1.6,1.3-3.7,2.9-5.9,2.8c-1.9-0.1-3.5-1.3-5.2-1.8c-3.4-1-7.4,1.2-10.2,3
			c-3.1,1.9-5.8,4.5-9,6.2c-1.6,0.9-3.4,1.9-5.3,1.9c-2.2,0-0.6-3.1,0.2-4.2c4.2-5.1,11.3-6.6,17.3-8.7C40.4,51.2,53,46.6,65.5,42
			c8.6-3.2,17.2-6.4,25.8-9.5c1.6-0.6,3.3-1.2,4.3-2.8c1.8-2.7,0.4-5.8-2.4-7c-2.2-0.9-5-1-7.3-1.2c-2.8-0.3-5.7-0.5-8.5-0.6
			c-7.2-0.3-14.4-0.4-21.6,0c-6.5,0.3-13.1,0.9-19.4,2.7c-6.7,1.9-13,6.5-18.1,11.1C12.5,39.9,7.3,45.9,3.5,52.6
			c-1.6,2.8-2.9,5.8-3.5,9C-0.4,63.7,2.9,64.6,3.3,62.5L3.3,62.5z"/>
	</g>
</g>
</svg>
