<?xml version="1.0" encoding="utf-8"?>
<!-- Generator: Adobe Illustrator 22.0.1, SVG Export Plug-In . SVG Version: 6.00 Build 0)  -->
<svg version="1.1" id="Layer_1" xmlns="http://www.w3.org/2000/svg" xmlns:xlink="http://www.w3.org/1999/xlink" x="0px" y="0px"
	 viewBox="0 0 100 100" style="enable-background:new 0 0 100 100;" xml:space="preserve">
<style type="text/css">
	.st0{fill:#52BAD5;}
</style>
<g>
	<path class="st0" d="M4.9,45.2c-1-0.3-2-0.3-2.8,0.1c-0.9,0.4-1.4,1.2-1.4,2c0,1.6,1.5,2,2.9,2.3c1.3,0.3,2.9,0.5,3.8,1.7
		c0.3,0.4,0.4,0.9,0.4,1.5c0,0.6-0.2,1.2-0.5,1.7c-0.6,1-1.8,1.5-3,1.5c-0.4,0-0.7,0-1.1-0.1C2.1,55.6,1,55,0,54.1l0.4-0.5
		c2.6,2.5,6.8,2.4,6.8-0.9c0-1.7-1.9-2.2-3.7-2.6c-0.6-0.1-1.4-0.3-2.1-0.7c-0.9-0.5-1.3-1.3-1.3-2.3c0-0.5,0.2-1.1,0.5-1.5
		c0.3-0.4,0.7-0.8,1.3-1.1c0.8-0.4,1.6-0.4,2.5-0.3c0.2,0,0.5,0.1,0.7,0.2L4.9,45.2z"/>
	<path class="st0" d="M13.9,45.1L9.9,55.8H9.2l4.4-11.4h0.8l4.4,11.4h-0.7L13.9,45.1z"/>
	<path class="st0" d="M21.7,45.5v10.3h-0.6V44.4h0.6l7,10.3V44.4h0.6v11.4h-0.7L21.7,45.5z"/>
	<path class="st0" d="M32.1,45l0-0.6h3.8c0.8,0,1.5,0.1,2.2,0.4c0.7,0.3,1.3,0.7,1.8,1.2c0.5,0.5,0.9,1.1,1.2,1.8
		c0.3,0.7,0.4,1.4,0.4,2.2c0,0.8-0.1,1.5-0.4,2.2c-0.3,0.7-0.7,1.3-1.2,1.8c-0.5,0.5-1.1,0.9-1.8,1.2c-0.7,0.3-1.5,0.4-2.2,0.4h-3.8
		v-2.3h0.6v1.7h3.2c2.8,0,5.1-2.3,5.1-5.1c0-2.8-2.3-5.1-5.1-5.1H32.1z"/>
	<path class="st0" d="M58.1,44.4l-3.2,11.4H54l-3.8-6.7l-3.8,6.7h-0.9l-3.2-11.4H43l3,10.8l3.9-6.7h0.7l3.9,6.7l3-10.8H58.1z"/>
	<path class="st0" d="M68.4,44.4v11.4h-0.6V49h-7.3v6.7h-0.6V44.4h0.6v4.1h7.3v-4.1H68.4z"/>
	<path class="st0" d="M72.4,55.8h-0.6V44.4h0.6V55.8z"/>
	<path class="st0" d="M83.1,45.2c-0.7-0.4-1.5-0.5-2.3-0.5c-2.9,0-5.3,2.4-5.3,5.3c0,2.9,2.4,5.3,5.3,5.3c1.5,0,3-0.7,4-1.8l0.5,0.4
		c-0.6,0.6-1.2,1.1-2,1.5c-0.8,0.4-1.6,0.5-2.5,0.5c-0.8,0-1.6-0.1-2.3-0.4c-0.7-0.3-1.3-0.7-1.9-1.3c-0.5-0.5-1-1.2-1.3-1.9
		c-0.3-0.7-0.5-1.5-0.5-2.3c0-0.8,0.2-1.6,0.5-2.3c0.3-0.7,0.7-1.3,1.3-1.9c0.6-0.5,1.2-1,1.9-1.3c0.7-0.3,1.5-0.4,2.3-0.4
		c0.9,0,1.7,0.1,2.5,0.5l0.1,0.1L83.1,45.2z"/>
	<path class="st0" d="M96.1,44.4v11.4h-0.6V49h-7.3v6.7h-0.6V44.4h0.6v4.1h7.3v-4.1H96.1z"/>
	<path class="st0" d="M100,55.8h-0.6V44.4h0.6V55.8z"/>
</g>
</svg>
