<?xml version="1.0" encoding="utf-8"?>
<!-- Generator: Adobe Illustrator 22.0.1, SVG Export Plug-In . SVG Version: 6.00 Build 0)  -->
<svg version="1.1" id="Layer_1" xmlns="http://www.w3.org/2000/svg" xmlns:xlink="http://www.w3.org/1999/xlink" x="0px" y="0px"
	 viewBox="0 0 100 100" style="enable-background:new 0 0 100 100;" xml:space="preserve">
<style type="text/css">
	.st0{fill:#52BAD5;}
</style>
<g>
	<g>
		<path class="st0" d="M17.3,47.7c0.9-4.8,4.1-9.1,7.2-12.7c3.3-3.8,6.9-7,11.1-9.7c4-2.5,8.3-3.4,12.9-3.9
			c4.8-0.5,9.6-0.7,14.3-0.6c4.2,0,8.4,0.2,12.5,0.6c1.1,0.1,4,0.1,4.6,1.2c0.6,1.1-1.1,1.6-1.9,1.9c-5.8,2.1-11.5,4.2-17.2,6.3
			C52.5,33.9,44.1,37,35.7,40c-3.7,1.3-7.6,2.3-11.1,4.2c-2.1,1.1-4.4,3-5.2,5.3c-0.7,1.9-0.1,4.4,2.2,4.7c4.8,0.6,8.7-4.2,12.5-6.4
			c1.1-0.6,2.6-1.5,4-1.5c1.1,0,2.2,0.7,3.2,1.1c2.6,0.8,4.9-0.2,6.9-1.8c2.4-1.9,4.5-4,7.1-5.6c1.2-0.7,2.4-1.4,3.8-1.8
			c1.5-0.4,2.7-0.1,4.1,0.3c4.8,1.5,8.3-2.3,11.8-5c1.6-1.2,4.3-2.9,6.4-2c1.1,0.4,1.5,1.7,1.2,2.8c-0.3,1.1-1.4,1.8-2.4,2.4
			c-5.1,3.1-11.2,4.6-16.9,6.2C50.5,46.5,38.6,52.4,26,56.4c-2.1,0.7-3.7,1.1-5.7-0.1c-1.3-0.8-2.5,1.2-1.2,2
			c1.9,1.1,3.7,1.3,5.8,0.8c3.2-0.8,6.4-2,9.5-3.2c6.8-2.5,13.4-5.3,20.2-7.8c5.8-2.1,11.9-3.5,17.7-5.5c3-1,5.9-2.1,8.6-3.7
			c1.9-1.1,3.8-2.6,4-4.9c0.2-2.3-1.2-4.4-3.5-4.9c-2.2-0.5-4.6,0.4-6.5,1.6c-2.1,1.3-3.8,3.2-5.8,4.5c-1,0.7-2.4,1.5-3.7,1.4
			c-1.2,0-2.3-0.7-3.4-0.9c-5.7-1.1-10.8,4.4-14.8,7.6c-1.1,0.9-2.6,2.1-4.1,2c-1.3-0.1-2.4-0.9-3.7-1.3c-2.4-0.7-5.2,0.9-7.1,2.1
			c-2.2,1.4-4,3.1-6.3,4.4c-1.2,0.6-2.4,1.3-3.7,1.3c-1.6,0-0.4-2.2,0.2-2.9c2.9-3.6,7.9-4.6,12.1-6.1c8.8-3.1,17.6-6.3,26.3-9.6
			c6-2.2,12-4.5,18-6.6c1.1-0.4,2.3-0.9,3-1.9c1.3-1.9,0.3-4.1-1.7-4.9c-1.6-0.6-3.5-0.7-5.1-0.9c-2-0.2-4-0.3-6-0.4
			c-5-0.2-10.1-0.3-15.1,0c-4.5,0.2-9.2,0.6-13.6,1.9c-4.7,1.3-9.1,4.5-12.7,7.8c-4,3.6-7.6,7.8-10.2,12.5c-1.1,2-2.1,4.1-2.5,6.3
			C14.8,48.5,17,49.2,17.3,47.7L17.3,47.7z"/>
	</g>
	<g>
		<path class="st0" d="M4.9,70.8c-1-0.3-2-0.3-2.8,0.1c-0.9,0.4-1.4,1.2-1.4,2c0,1.6,1.5,2,2.9,2.3c1.3,0.3,2.9,0.5,3.8,1.7
			c0.3,0.4,0.4,0.9,0.4,1.5c0,0.6-0.2,1.2-0.5,1.7c-0.6,1-1.8,1.5-3,1.5c-0.4,0-0.7,0-1.1-0.1C2.1,81.2,1,80.6,0,79.7l0.4-0.5
			c2.6,2.5,6.8,2.4,6.8-0.9c0-1.7-1.9-2.2-3.7-2.6c-0.6-0.1-1.4-0.3-2.1-0.7c-0.9-0.5-1.3-1.3-1.3-2.3c0-0.5,0.2-1.1,0.5-1.5
			c0.3-0.4,0.7-0.8,1.3-1.1c0.8-0.4,1.6-0.4,2.5-0.3c0.2,0,0.5,0.1,0.7,0.2L4.9,70.8z"/>
		<path class="st0" d="M13.9,70.7L9.9,81.4H9.2L13.5,70h0.8l4.4,11.4h-0.7L13.9,70.7z"/>
		<path class="st0" d="M21.7,71.1v10.3h-0.6V70h0.6l7,10.3V70h0.6v11.4h-0.7L21.7,71.1z"/>
		<path class="st0" d="M32.1,70.6l0-0.6h3.8c0.8,0,1.5,0.1,2.2,0.4c0.7,0.3,1.3,0.7,1.8,1.2c0.5,0.5,0.9,1.1,1.2,1.8
			c0.3,0.7,0.4,1.4,0.4,2.2c0,0.8-0.1,1.5-0.4,2.2c-0.3,0.7-0.7,1.3-1.2,1.8c-0.5,0.5-1.1,0.9-1.8,1.2c-0.7,0.3-1.5,0.4-2.2,0.4
			h-3.8V79h0.6v1.7h3.2c2.8,0,5.1-2.3,5.1-5.1c0-2.8-2.3-5.1-5.1-5.1H32.1z"/>
		<path class="st0" d="M58.1,70l-3.2,11.4H54l-3.8-6.7l-3.8,6.7h-0.9L42.3,70H43l3,10.8l3.9-6.7h0.7l3.9,6.7l3-10.8H58.1z"/>
		<path class="st0" d="M68.4,70v11.4h-0.6v-6.7h-7.3v6.7h-0.6V70h0.6V74h7.3V70H68.4z"/>
		<path class="st0" d="M72.4,81.4h-0.6V70h0.6V81.4z"/>
		<path class="st0" d="M83.1,70.8c-0.7-0.4-1.5-0.5-2.3-0.5c-2.9,0-5.3,2.4-5.3,5.3c0,2.9,2.4,5.3,5.3,5.3c1.5,0,3-0.7,4-1.8
			l0.5,0.4c-0.6,0.6-1.2,1.1-2,1.5c-0.8,0.4-1.6,0.5-2.5,0.5c-0.8,0-1.6-0.1-2.3-0.4c-0.7-0.3-1.3-0.7-1.9-1.3
			c-0.5-0.5-1-1.2-1.3-1.9c-0.3-0.7-0.5-1.5-0.5-2.3c0-0.8,0.2-1.6,0.5-2.3c0.3-0.7,0.7-1.3,1.3-1.9c0.6-0.5,1.2-1,1.9-1.3
			c0.7-0.3,1.5-0.4,2.3-0.4c0.9,0,1.7,0.1,2.5,0.5l0.1,0.1L83.1,70.8z"/>
		<path class="st0" d="M96.1,70v11.4h-0.6v-6.7h-7.3v6.7h-0.6V70h0.6V74h7.3V70H96.1z"/>
		<path class="st0" d="M100,81.4h-0.6V70h0.6V81.4z"/>
	</g>
</g>
</svg>
